<svg xmlns="http://www.w3.org/2000/svg" viewBox="0 0 32 32"><g data-name="Layer 2"><path fill="#171938" d="M12 17H7a3 3 0 0 0-3 3v5a3 3 0 0 0 3 3h5a3 3 0 0 0 3-3v-5a3 3 0 0 0-3-3zm1 8a1 1 0 0 1-1 1H7a1 1 0 0 1-1-1v-5a1 1 0 0 1 1-1h5a1 1 0 0 1 1 1zm12-8h-5a3 3 0 0 0-3 3v5a3 3 0 0 0 3 3h5a3 3 0 0 0 3-3v-5a3 3 0 0 0-3-3zm1 8a1 1 0 0 1-1 1h-5a1 1 0 0 1-1-1v-5a1 1 0 0 1 1-1h5a1 1 0 0 1 1 1zM12 4H7a3 3 0 0 0-3 3v5a3 3 0 0 0 3 3h5a3 3 0 0 0 3-3V7a3 3 0 0 0-3-3zm1 8a1 1 0 0 1-1 1H7a1 1 0 0 1-1-1V7a1 1 0 0 1 1-1h5a1 1 0 0 1 1 1z"/><path fill="#4c46c8" d="M27 8.5h-3.5V5a1 1 0 0 0-2 0v3.5H18a1 1 0 0 0 0 2h3.5V14a1 1 0 0 0 2 0v-3.5H27a1 1 0 0 0 0-2Z"/></g></svg>